<?xml version="1.0" standalone="no"?>
<!DOCTYPE svg PUBLIC "-//W3C//DTD SVG 20010904//EN"
 "http://www.w3.org/TR/2001/REC-SVG-20010904/DTD/svg10.dtd">
<svg version="1.0" xmlns="http://www.w3.org/2000/svg"
 width="665.000000pt" height="135.000000pt" viewBox="0 0 665.000000 135.000000"
 preserveAspectRatio="xMidYMid meet">

<g transform="translate(0.000000,135.000000) scale(0.100000,-0.100000)"
fill="#000000" stroke="none">
<path d="M3450 1101 c-13 -50 -83 -363 -105 -469 -13 -63 -14 -86 -5 -97 16
-19 40 -7 55 28 13 30 13 30 25 8 29 -55 161 -65 216 -18 26 23 33 48 100 332
19 79 30 110 32 92 7 -59 56 -42 67 23 9 53 -1 80 -29 80 -17 0 -22 6 -22 23
1 17 -5 22 -24 22 -29 0 -31 -6 -81 -217 l-32 -137 -28 14 c-57 30 -122 7
-165 -56 -10 -15 -20 -27 -21 -25 -2 1 15 85 37 186 46 211 47 226 21 240 -28
15 -29 14 -41 -29z m150 -380 c14 -27 13 -106 -3 -119 -19 -16 -64 -25 -92
-18 -22 6 -25 12 -25 47 0 72 92 141 120 90z"/>
<path d="M1477 1063 c-2 -5 -7 -26 -11 -48 -4 -22 -28 -124 -52 -228 -51 -207
-47 -202 -130 -195 l-39 3 1 45 c0 26 11 69 26 103 l27 57 45 0 c43 0 46 2 54
33 l8 32 -44 3 c-40 3 -43 5 -37 25 4 12 8 36 9 52 1 27 -2 30 -31 33 -28 3
-33 0 -39 -25 -17 -77 -17 -77 -77 -87 -57 -8 -57 -8 -57 -43 l0 -36 40 6 c22
3 40 2 40 -1 0 -4 -9 -36 -20 -70 -27 -87 -26 -143 3 -169 32 -30 78 -37 121
-19 20 8 34 11 31 6 -3 -6 5 -10 19 -10 14 0 29 -1 33 -2 4 -2 17 31 28 73 34
119 88 199 137 199 9 0 19 -8 22 -18 5 -15 -25 -157 -49 -234 -5 -15 -1 -18
24 -18 27 0 32 5 50 53 19 49 20 50 20 19 1 -21 10 -42 26 -58 23 -23 30 -25
83 -19 69 9 106 24 110 48 3 15 -5 17 -60 17 -38 0 -72 5 -83 14 -17 12 -17
17 -5 60 7 26 18 50 24 54 15 10 176 40 176 33 0 -8 -28 -159 -35 -189 -5 -21
-3 -23 26 -20 32 3 33 5 46 73 27 133 86 195 155 161 31 -16 34 -16 45 1 19
24 16 40 -9 57 -25 18 -100 21 -128 6 -14 -8 -26 -7 -40 2 -18 11 -23 10 -35
-6 -13 -18 -15 -17 -40 12 -35 42 -57 47 -107 24 -49 -22 -76 -49 -110 -109
l-24 -42 -1 50 c-1 81 -47 116 -117 89 -31 -11 -31 -12 -11 93 21 108 20 117
-9 117 -14 0 -27 -3 -29 -7z m338 -259 c-46 -20 -64 -17 -38 5 15 12 31 17 45
13 22 -5 22 -6 -7 -18z"/>
<path d="M395 1000 c-62 -41 -92 -96 -157 -290 -26 -79 -48 -150 -48 -157 0
-8 13 -13 33 -13 33 0 33 0 51 75 15 65 21 75 39 75 12 0 46 3 76 7 l54 6 -6
-81 c-5 -81 -5 -82 19 -82 18 0 26 8 34 33 l10 32 -5 -33 c-4 -28 -1 -34 22
-43 14 -5 27 -8 28 -7 1 2 17 48 36 103 99 291 245 317 168 29 -27 -98 -29
-128 -9 -131 26 -5 41 12 55 63 10 38 13 43 14 21 1 -35 51 -87 83 -87 70 1
167 83 194 163 23 70 16 158 -17 193 -21 22 -30 25 -67 21 -52 -6 -98 -45
-144 -122 l-30 -50 5 42 c11 95 -24 153 -92 153 -39 0 -98 -30 -108 -55 -5
-14 -8 -14 -25 2 -28 25 -51 6 -60 -48 -18 -116 -26 -123 -20 -18 5 115 -5
166 -41 199 -26 25 -54 25 -92 0z m52 -62 c18 -23 22 -60 12 -111 -5 -28 -11
-52 -13 -54 -2 -3 -30 -8 -61 -12 l-56 -8 6 31 c9 43 48 128 69 149 21 20 30
21 43 5z m587 -124 c28 -73 -28 -193 -107 -225 -26 -11 -31 -10 -44 7 -39 52
54 234 120 234 14 0 28 -7 31 -16z m-517 -146 c-3 -8 -6 -5 -6 6 -1 11 2 17 5
13 3 -3 4 -12 1 -19z m-10 -50 c-3 -8 -6 -5 -6 6 -1 11 2 17 5 13 3 -3 4 -12
1 -19z"/>
<path d="M5032 963 c-5 -10 -12 -34 -16 -54 -6 -36 -7 -37 -67 -43 l-60 -7 3
-32 c3 -30 5 -32 41 -31 43 1 43 0 17 -84 -25 -81 -25 -123 0 -155 39 -49 149
-39 169 15 8 22 8 22 25 -10 20 -39 47 -47 121 -33 54 10 95 33 95 53 0 4 -31
8 -69 8 -92 0 -105 12 -86 77 8 25 18 49 22 53 4 4 42 13 82 19 41 7 81 17 88
23 32 26 4 100 -44 119 -79 30 -196 -94 -218 -231 -9 -53 -17 -60 -71 -60 -74
0 -79 36 -25 163 20 46 21 47 65 47 48 0 50 1 60 43 6 26 5 27 -39 27 -44 0
-46 1 -39 23 5 12 8 36 9 52 0 25 -4 30 -27 33 -18 2 -30 -3 -36 -15z m296
-141 c9 -6 5 -12 -13 -20 -14 -7 -34 -12 -43 -12 -13 0 -12 5 8 20 28 22 30
23 48 12z"/>
<path d="M2470 910 l-24 -18 34 -186 c19 -102 37 -186 40 -186 3 0 31 38 61
85 29 47 56 85 60 85 3 0 18 -27 34 -59 15 -33 39 -71 53 -86 l25 -27 28 67
c37 89 95 313 83 324 -5 5 -19 12 -30 15 -20 6 -23 -1 -49 -106 -45 -182 -39
-178 -94 -70 l-47 93 -44 -80 c-24 -44 -46 -78 -48 -76 -3 2 -15 57 -28 121
-13 65 -25 119 -27 120 -1 1 -13 -6 -27 -16z"/>
<path d="M5460 910 l-24 -18 34 -186 c19 -102 37 -186 40 -186 3 0 31 38 61
85 29 47 56 85 60 85 3 0 18 -27 34 -59 15 -33 39 -71 53 -86 l25 -27 28 67
c37 89 95 313 83 324 -5 5 -19 12 -30 15 -20 6 -23 -1 -49 -106 -45 -182 -39
-178 -94 -70 l-47 93 -44 -80 c-24 -44 -46 -78 -48 -76 -3 2 -15 57 -28 121
-13 65 -25 119 -27 120 -1 1 -13 -6 -27 -16z"/>
<path d="M6322 833 c-16 -43 -35 -95 -43 -115 -7 -21 -16 -38 -19 -38 -3 0
-22 46 -41 103 -32 89 -39 102 -61 105 -14 2 -31 -4 -38 -13 -11 -13 -4 -39
39 -163 50 -146 56 -176 45 -219 l-6 -23 -829 0 c-456 0 -829 4 -829 8 0 5 7
29 16 54 l15 45 30 -30 c29 -29 32 -29 96 -23 36 4 80 13 98 21 37 15 45 41
64 195 12 91 5 127 -26 147 -49 32 -154 -1 -174 -55 -7 -19 -5 -22 15 -22 13
0 43 7 66 15 23 8 46 12 51 9 10 -6 10 -77 0 -113 -6 -22 -11 -24 -78 -25 -64
-1 -75 -4 -101 -29 l-29 -28 13 85 c15 101 11 122 -27 141 -94 49 -184 -30
-230 -203 -21 -77 -21 -84 -6 -99 24 -25 81 -19 127 11 22 14 41 26 43 26 7 0
-12 -89 -23 -110 -11 -20 -28 -20 -2153 -22 l-2142 -3 -3 -22 -3 -23 1996 0
c1898 0 1997 -1 1989 -17 -4 -10 -9 -34 -12 -55 -6 -50 27 -71 111 -72 88 -1
146 24 206 90 l50 54 825 0 c454 0 826 -2 826 -4 0 -3 -13 -37 -29 -78 -48
-121 -48 -118 -8 -118 34 0 35 1 62 77 45 126 41 123 145 123 89 0 90 0 90 25
0 24 -2 24 -84 27 l-84 3 75 200 75 199 -22 18 c-12 10 -26 18 -30 18 -5 0
-22 -35 -38 -77z m-1798 -56 c-2 -64 -103 -191 -130 -164 -13 12 39 148 67
178 39 41 64 36 63 -14z m227 -153 c10 -13 10 -17 -2 -25 -24 -16 -58 -21 -85
-15 -30 8 -27 26 7 43 33 17 64 16 80 -3z m-321 -213 c0 -18 -61 -61 -103 -72
-30 -8 -51 -8 -79 0 -44 13 -43 12 -23 51 l16 30 94 0 c52 0 95 -4 95 -9z"/>
<path d="M2954 880 c-90 -59 -159 -234 -123 -314 38 -82 186 -33 250 83 18 32
19 33 14 8 -3 -15 -8 -47 -12 -72 -6 -45 -5 -45 24 -45 29 0 30 2 42 67 25
137 82 199 155 169 37 -15 56 -7 56 24 0 43 -80 65 -146 40 -19 -7 -30 -7 -40
1 -22 18 -41 4 -52 -38 -10 -37 -10 -38 -11 -7 -1 17 -11 46 -24 65 -19 28
-30 34 -62 37 -27 1 -50 -5 -71 -18z m86 -65 c20 -25 5 -113 -27 -159 -35 -49
-97 -84 -118 -66 -24 20 -18 72 16 138 44 89 98 125 129 87z"/>
<path d="M5934 886 c-29 -13 -64 -50 -64 -68 0 -13 48 -9 87 7 20 9 43 13 50
11 15 -6 17 -57 3 -107 l-10 -35 -58 4 c-73 5 -113 -13 -137 -63 -22 -49 -13
-81 29 -102 29 -13 45 -14 106 -5 40 6 80 18 90 27 21 19 50 161 50 248 0 44
-5 62 -20 77 -24 24 -79 26 -126 6z m33 -262 c3 -8 1 -20 -4 -25 -15 -15 -76
-21 -93 -9 -13 9 -12 13 9 30 28 24 79 26 88 4z"/>
<path d="M3865 859 c-71 -20 -114 -104 -77 -149 18 -23 28 -25 96 -25 89 0
107 -11 82 -50 -10 -15 -33 -33 -52 -41 -31 -13 -38 -13 -79 6 -49 22 -65 20
-65 -9 0 -44 79 -77 143 -60 53 14 115 72 123 115 15 79 -15 104 -127 104 -61
0 -70 2 -67 17 8 42 111 58 143 23 14 -15 21 -17 32 -9 20 17 16 67 -6 79 -23
12 -104 12 -146 -1z"/>
<path d="M6352 598 c-18 -18 -14 -56 7 -68 40 -21 99 27 84 68 -6 15 -75 16
-91 0z"/>
</g>
</svg>
